{
  "accessors": [
    {
      "bufferView": 2,
      "componentType": 5126,
      "count": 2349,
      "max": [
        0.040996000170707703,
        0.031840000301599503,
        0.22197200357913971
      ],
      "min": [
        -0.040996000170707703,
        -0.050152000039815903,
        0.00034500000765547156
      ],
      "type": "VEC3"
    },
    {
      "bufferView": 2,
      "byteOffset": 28188,
      "componentType": 5126,
      "count": 2349,
      "max": [
        1,
        1,
        1
      ],
      "min": [
        -1,
        -1,
        -1
      ],
      "type": "VEC3"
    },
    {
      "bufferView": 1,
      "componentType": 5126,
      "count": 2349,
      "max": [
        1.0000209808349609,
        1
      ],
      "min": [
        -2.0999999833293259e-05,
        0.0099999997764825821
      ],
      "type": "VEC2"
    },
    {
      "bufferView": 0,
      "componentType": 5125,
      "count": 11472,
      "max": [
        2348
      ],
      "min": [
        0
      ],
      "type": "SCALAR"
    },
    {
      "bufferView": 2,
      "byteOffset": 56376,
      "componentType": 5126,
      "count": 908,
      "max": [
        0.029294999316334724,
        0.046985998749732971,
        0.22680400311946869
      ],
      "min": [
        -0.029294999316334724,
        -0.038451001048088074,
        0.19402499496936798
      ],
      "type": "VEC3"
    },
    {
      "bufferView": 2,
      "byteOffset": 67272,
      "componentType": 5126,
      "count": 908,
      "max": [
        1,
        1,
        1
      ],
      "min": [
        -1,
        -1,
        -0.99512696266174316
      ],
      "type": "VEC3"
    },
    {
      "bufferView": 1,
      "byteOffset": 18792,
      "componentType": 5126,
      "count": 908,
      "max": [
        1,
        0.96922200918197632
      ],
      "min": [
        0,
        0.058363001793622971
      ],
      "type": "VEC2"
    },
    {
      "bufferView": 0,
      "byteOffset": 45888,
      "componentType": 5125,
      "count": 3786,
      "max": [
        907
      ],
      "min": [
        0
      ],
      "type": "SCALAR"
    },
    {
      "bufferView": 2,
      "byteOffset": 78168,
      "componentType": 5126,
      "count": 64,
      "max": [
        0.032940998673439026,
        0.023785000666975975,
        0.0064389999024569988
      ],
      "min": [
        -0.032940998673439026,
        -0.042096998542547226,
        0.0064389999024569988
      ],
      "type": "VEC3"
    },
    {
      "bufferView": 2,
      "byteOffset": 78936,
      "componentType": 5126,
      "count": 64,
      "max": [
        0,
        0,
        -1
      ],
      "min": [
        0,
        0,
        -1
      ],
      "type": "VEC3"
    },
    {
      "bufferView": 1,
      "byteOffset": 26056,
      "componentType": 5126,
      "count": 64,
      "max": [
        0.98943299055099487,
        0.48943200707435608
      ],
      "min": [
        0.51056802272796631,
        0.010568000376224518
      ],
      "type": "VEC2"
    },
    {
      "bufferView": 0,
      "byteOffset": 61032,
      "componentType": 5125,
      "count": 186,
      "max": [
        63
      ],
      "min": [
        0
      ],
      "type": "SCALAR"
    },
    {
      "bufferView": 2,
      "byteOffset": 79704,
      "componentType": 5126,
      "count": 8191,
      "max": [
        0.029681000858545303,
        -0.0066940002143383026,
        0.0075480001978576183
      ],
      "min": [
        -0.029681000858545303,
        -0.011618000455200672,
        0.005303999874740839
      ],
      "type": "VEC3"
    },
    {
      "bufferView": 2,
      "byteOffset": 177996,
      "componentType": 5126,
      "count": 8191,
      "max": [
        1,
        1,
        1
      ],
      "min": [
        -1,
        -1,
        -1
      ],
      "type": "VEC3"
    },
    {
      "bufferView": 1,
      "byteOffset": 26568,
      "componentType": 5126,
      "count": 8191,
      "max": [
        1,
        1
      ],
      "min": [
        0,
        0
      ],
      "type": "VEC2"
    },
    {
      "bufferView": 0,
      "byteOffset": 61776,
      "componentType": 5125,
      "count": 22188,
      "max": [
        8190
      ],
      "min": [
        0
      ],
      "type": "SCALAR"
    }
  ],
  "asset": {
    "extras": {
      "author": "Strebicusy (https://sketchfab.com/strebicus)",
      "license": "CC-BY-4.0 (http://creativecommons.org/licenses/by/4.0/)",
      "source": "https://sketchfab.com/3d-models/metal-bottle-9f22e43b4a9a422bb233ce1caa6f69da",
      "title": "Metal Bottle"
    },
    "generator": "Sketchfab-8.51.0",
    "version": "2.0"
  },
  "bufferViews": [
    {
      "buffer": 0,
      "byteLength": 150528,
      "byteOffset": 0,
      "name": "floatBufferViews",
      "target": 34963
    },
    {
      "buffer": 0,
      "byteLength": 92096,
      "byteOffset": 150528,
      "byteStride": 8,
      "name": "floatBufferViews",
      "target": 34962
    },
    {
      "buffer": 0,
      "byteLength": 276288,
      "byteOffset": 242624,
      "byteStride": 12,
      "name": "floatBufferViews",
      "target": 34962
    }
  ],
  "buffers": [
    {
      "byteLength": 518912,
      "uri": "scene.bin"
    }
  ],
  "materials": [
    {
      "doubleSided": true,
      "name": "Material.001",
      "pbrMetallicRoughness": {
        "baseColorFactor": [
          1,
          1,
          1,
          1
        ],
        "metallicFactor": 1,
        "roughnessFactor": 0.1591698184
      }
    },
    {
      "doubleSided": true,
      "name": "Material.002",
      "pbrMetallicRoughness": {
        "baseColorFactor": [
          0.0122592169,
          0.0122592169,
          0.0122592169,
          1
        ],
        "metallicFactor": 0,
        "roughnessFactor": 0.59999999999999998
      }
    },
    {
      "doubleSided": true,
      "name": "Material.003",
      "pbrMetallicRoughness": {
        "baseColorFactor": [
          1,
          1,
          1,
          1
        ],
        "metallicFactor": 0,
        "roughnessFactor": 0.59999999999999998
      }
    },
    {
      "doubleSided": true,
      "name": "Material.004",
      "pbrMetallicRoughness": {
        "baseColorFactor": [
          1,
          1,
          1,
          1
        ],
        "metallicFactor": 0,
        "roughnessFactor": 0.59999999999999998
      }
    }
  ],
  "meshes": [
    {
      "primitives": [
        {
          "attributes": {
            "NORMAL": 1,
            "POSITION": 0,
            "TEXCOORD_0": 2
          },
          "indices": 3,
          "material": 0,
          "mode": 4
        }
      ]
    },
    {
      "primitives": [
        {
          "attributes": {
            "NORMAL": 5,
            "POSITION": 4,
            "TEXCOORD_0": 6
          },
          "indices": 7,
          "material": 1,
          "mode": 4
        }
      ]
    },
    {
      "primitives": [
        {
          "attributes": {
            "NORMAL": 9,
            "POSITION": 8,
            "TEXCOORD_0": 10
          },
          "indices": 11,
          "material": 3,
          "mode": 4
        }
      ]
    },
    {
      "primitives": [
        {
          "attributes": {
            "NORMAL": 13,
            "POSITION": 12,
            "TEXCOORD_0": 14
          },
          "indices": 15,
          "material": 2,
          "mode": 4
        }
      ]
    }
  ],
  "nodes": [
    {
      "children": [
        1
      ],
      "name": "RootNode (gltf orientation matrix)",
      "rotation": [
        -0.70710678118654746,
        -0,
        -0,
        0.70710678118654757
      ]
    },
    {
      "children": [
        2
      ],
      "matrix": [
        1.3138496875762939,
        0,
        0,
        0,
        0,
        1.3138496875762939,
        0,
        0,
        0,
        0,
        1.3138496875762939,
        0,
        0,
        0,
        0,
        1
      ],
      "name": "RootNode (model correction matrix)"
    },
    {
      "children": [
        3,
        4,
        5,
        6
      ],
      "name": "Metal_Bottle.obj.cleaner.materialmerger.gles"
    },
    {
      "mesh": 0,
      "name": ""
    },
    {
      "mesh": 1,
      "name": ""
    },
    {
      "mesh": 2,
      "name": ""
    },
    {
      "mesh": 3,
      "name": ""
    }
  ],
  "scene": 0,
  "scenes": [
    {
      "name": "OSG_Scene",
      "nodes": [
        0
      ]
    }
  ]
}

